<mxfile host="app.diagrams.net" agent="Mozilla/5.0 (Windows NT 10.0; Win64; x64) AppleWebKit/537.36 (KHTML, like Gecko) Chrome/131.0.0.0 Safari/537.36" version="24.9.1" pages="2">
  <diagram id="hMvVtiX32T1u-24VstQx" name="Page-3">
    <mxGraphModel dx="989" dy="532" grid="1" gridSize="10" guides="1" tooltips="1" connect="1" arrows="1" fold="1" page="1" pageScale="1" pageWidth="850" pageHeight="1100" math="0" shadow="0">
      <root>
        <mxCell id="0" />
        <mxCell id="1" parent="0" />
        <mxCell id="vNNInEdV48VslidP_wBI-1" value="Amazon API Gateway" style="sketch=0;outlineConnect=0;fontColor=#232F3E;gradientColor=none;strokeColor=#ffffff;fillColor=#232F3E;dashed=0;verticalLabelPosition=middle;verticalAlign=bottom;align=center;html=1;whiteSpace=wrap;fontSize=10;fontStyle=1;spacing=3;shape=mxgraph.aws4.productIcon;prIcon=mxgraph.aws4.api_gateway;" parent="1" vertex="1">
          <mxGeometry x="59" y="280" width="80" height="110" as="geometry" />
        </mxCell>
        <mxCell id="vNNInEdV48VslidP_wBI-2" value="AWS Lambda" style="sketch=0;outlineConnect=0;fontColor=#232F3E;gradientColor=none;strokeColor=#ffffff;fillColor=#232F3E;dashed=0;verticalLabelPosition=middle;verticalAlign=bottom;align=center;html=1;whiteSpace=wrap;fontSize=10;fontStyle=1;spacing=3;shape=mxgraph.aws4.productIcon;prIcon=mxgraph.aws4.lambda;" parent="1" vertex="1">
          <mxGeometry x="179" y="281" width="80" height="100" as="geometry" />
        </mxCell>
        <mxCell id="vNNInEdV48VslidP_wBI-3" value="&lt;span style=&quot;font-size: 10px; text-wrap-mode: wrap;&quot;&gt;&lt;b&gt;S3 Bucket&lt;/b&gt;&lt;/span&gt;" style="sketch=0;outlineConnect=0;fontColor=#232F3E;gradientColor=none;fillColor=#7AA116;strokeColor=none;dashed=0;verticalLabelPosition=bottom;verticalAlign=top;align=center;html=1;fontSize=12;fontStyle=0;aspect=fixed;pointerEvents=1;shape=mxgraph.aws4.bucket;" parent="1" vertex="1">
          <mxGeometry x="305" y="281" width="75" height="78" as="geometry" />
        </mxCell>
        <mxCell id="vNNInEdV48VslidP_wBI-5" value="&lt;span style=&quot;font-size: 10px; text-wrap-mode: wrap;&quot;&gt;&lt;b&gt;Event Bridge&lt;/b&gt;&lt;/span&gt;" style="sketch=0;points=[[0,0,0],[0.25,0,0],[0.5,0,0],[0.75,0,0],[1,0,0],[0,1,0],[0.25,1,0],[0.5,1,0],[0.75,1,0],[1,1,0],[0,0.25,0],[0,0.5,0],[0,0.75,0],[1,0.25,0],[1,0.5,0],[1,0.75,0]];outlineConnect=0;fontColor=#232F3E;fillColor=#E7157B;strokeColor=#ffffff;dashed=0;verticalLabelPosition=bottom;verticalAlign=top;align=center;html=1;fontSize=12;fontStyle=0;aspect=fixed;shape=mxgraph.aws4.resourceIcon;resIcon=mxgraph.aws4.eventbridge;" parent="1" vertex="1">
          <mxGeometry x="419" y="280" width="78" height="78" as="geometry" />
        </mxCell>
        <mxCell id="vNNInEdV48VslidP_wBI-6" value="AWS Lambda" style="sketch=0;outlineConnect=0;fontColor=#232F3E;gradientColor=none;strokeColor=#ffffff;fillColor=#232F3E;dashed=0;verticalLabelPosition=middle;verticalAlign=bottom;align=center;html=1;whiteSpace=wrap;fontSize=10;fontStyle=1;spacing=3;shape=mxgraph.aws4.productIcon;prIcon=mxgraph.aws4.lambda;" parent="1" vertex="1">
          <mxGeometry x="539" y="279" width="80" height="100" as="geometry" />
        </mxCell>
        <mxCell id="vNNInEdV48VslidP_wBI-7" value="&lt;span style=&quot;font-size: 10px; font-weight: 700; text-wrap-mode: wrap;&quot;&gt;T&lt;/span&gt;&lt;span style=&quot;font-size: 10px; text-wrap-mode: wrap;&quot;&gt;&lt;b&gt;extract&lt;/b&gt;&lt;/span&gt;" style="sketch=0;points=[[0,0,0],[0.25,0,0],[0.5,0,0],[0.75,0,0],[1,0,0],[0,1,0],[0.25,1,0],[0.5,1,0],[0.75,1,0],[1,1,0],[0,0.25,0],[0,0.5,0],[0,0.75,0],[1,0.25,0],[1,0.5,0],[1,0.75,0]];outlineConnect=0;fontColor=#232F3E;fillColor=#01A88D;strokeColor=#ffffff;dashed=0;verticalLabelPosition=bottom;verticalAlign=top;align=center;html=1;fontSize=12;fontStyle=0;aspect=fixed;shape=mxgraph.aws4.resourceIcon;resIcon=mxgraph.aws4.textract;" parent="1" vertex="1">
          <mxGeometry x="709" y="227" width="78" height="78" as="geometry" />
        </mxCell>
        <mxCell id="vNNInEdV48VslidP_wBI-8" value="&lt;span style=&quot;font-size: 10px; font-weight: 700; text-wrap-mode: wrap;&quot;&gt;RDS&lt;/span&gt;" style="sketch=0;points=[[0,0,0],[0.25,0,0],[0.5,0,0],[0.75,0,0],[1,0,0],[0,1,0],[0.25,1,0],[0.5,1,0],[0.75,1,0],[1,1,0],[0,0.25,0],[0,0.5,0],[0,0.75,0],[1,0.25,0],[1,0.5,0],[1,0.75,0]];outlineConnect=0;fontColor=#232F3E;fillColor=#C925D1;strokeColor=#ffffff;dashed=0;verticalLabelPosition=bottom;verticalAlign=top;align=center;html=1;fontSize=12;fontStyle=0;aspect=fixed;shape=mxgraph.aws4.resourceIcon;resIcon=mxgraph.aws4.rds;" parent="1" vertex="1">
          <mxGeometry x="709" y="340" width="78" height="78" as="geometry" />
        </mxCell>
        <mxCell id="07poa1ojGje_sDJfWAz5-1" value="" style="endArrow=classic;html=1;rounded=0;" edge="1" parent="1">
          <mxGeometry width="50" height="50" relative="1" as="geometry">
            <mxPoint x="99" y="281" as="sourcePoint" />
            <mxPoint x="209" y="280" as="targetPoint" />
            <Array as="points">
              <mxPoint x="99" y="241" />
              <mxPoint x="209" y="240" />
            </Array>
          </mxGeometry>
        </mxCell>
        <mxCell id="07poa1ojGje_sDJfWAz5-3" value="" style="endArrow=classic;html=1;rounded=0;" edge="1" parent="1">
          <mxGeometry width="50" height="50" relative="1" as="geometry">
            <mxPoint x="258" y="319.8" as="sourcePoint" />
            <mxPoint x="309.00663912658604" y="319.9101955428182" as="targetPoint" />
          </mxGeometry>
        </mxCell>
        <mxCell id="07poa1ojGje_sDJfWAz5-4" value="" style="endArrow=classic;html=1;rounded=0;" edge="1" parent="1">
          <mxGeometry width="50" height="50" relative="1" as="geometry">
            <mxPoint x="378" y="319.8" as="sourcePoint" />
            <mxPoint x="419" y="320" as="targetPoint" />
          </mxGeometry>
        </mxCell>
        <mxCell id="07poa1ojGje_sDJfWAz5-5" value="" style="endArrow=classic;html=1;rounded=0;" edge="1" parent="1" target="vNNInEdV48VslidP_wBI-6">
          <mxGeometry width="50" height="50" relative="1" as="geometry">
            <mxPoint x="459" y="279" as="sourcePoint" />
            <mxPoint x="569" y="278" as="targetPoint" />
            <Array as="points">
              <mxPoint x="459" y="240" />
              <mxPoint x="579" y="240" />
            </Array>
          </mxGeometry>
        </mxCell>
        <mxCell id="07poa1ojGje_sDJfWAz5-7" value="" style="endArrow=classic;html=1;rounded=0;entryX=0;entryY=0.5;entryDx=0;entryDy=0;entryPerimeter=0;" edge="1" parent="1">
          <mxGeometry width="50" height="50" relative="1" as="geometry">
            <mxPoint x="618" y="329" as="sourcePoint" />
            <mxPoint x="708" y="370" as="targetPoint" />
          </mxGeometry>
        </mxCell>
        <mxCell id="07poa1ojGje_sDJfWAz5-8" value="" style="endArrow=classic;html=1;rounded=0;entryX=0;entryY=0.5;entryDx=0;entryDy=0;entryPerimeter=0;" edge="1" parent="1">
          <mxGeometry width="50" height="50" relative="1" as="geometry">
            <mxPoint x="618" y="321" as="sourcePoint" />
            <mxPoint x="708" y="280" as="targetPoint" />
          </mxGeometry>
        </mxCell>
      </root>
    </mxGraphModel>
  </diagram>
  <diagram id="Pj2xA4j7fAMZpprhi1Cv" name="Page-2">
    <mxGraphModel dx="1434" dy="772" grid="1" gridSize="10" guides="1" tooltips="1" connect="1" arrows="1" fold="1" page="1" pageScale="1" pageWidth="850" pageHeight="1100" math="0" shadow="0">
      <root>
        <mxCell id="0" />
        <mxCell id="1" parent="0" />
        <mxCell id="ZD4QwyvyGDV3To2wUMlc-2" value="provider &quot;aws&quot; {&#xa;  region = &quot;us-east-1&quot;  # Change to your preferred region&#xa;}" style="text;whiteSpace=wrap;" vertex="1" parent="1">
          <mxGeometry x="160" y="90" width="330" height="70" as="geometry" />
        </mxCell>
      </root>
    </mxGraphModel>
  </diagram>
</mxfile>
